<?xml version="1.0" encoding="utf-8"?>
<!-- Generator: Adobe Illustrator 16.0.3, SVG Export Plug-In . SVG Version: 6.00 Build 0)  -->
<!DOCTYPE svg PUBLIC "-//W3C//DTD SVG 1.1//EN" "http://www.w3.org/Graphics/SVG/1.1/DTD/svg11.dtd">
<svg version="1.1" id="Layer_1" xmlns="http://www.w3.org/2000/svg" xmlns:xlink="http://www.w3.org/1999/xlink" x="0px" y="0px"
	 width="500px" height="500px" viewBox="0 0 500 500" enable-background="new 0 0 500 500" xml:space="preserve">
<g>
	<defs>
		<path id="SVGID_45_" d="M-34.336,234.229L-142.843,49.312C-146.702,42.65-153.794,41-161.494,41h-217.01
			c-7.701,0-14.793,1.65-18.652,8.312l-108.506,186.135c-3.86,6.664-3.86,14.331,0,20.995l108.506,189.581
			c3.859,6.664,10.951,12.977,18.652,12.977h217.01c7.7,0,14.792-6.617,18.651-13.281l108.507-188.621
			C-30.478,250.434-30.478,240.893-34.336,234.229z"/>
	</defs>
	<clipPath id="SVGID_2_">
		<use xlink:href="#SVGID_45_"  overflow="visible"/>
	</clipPath>
	<g clip-path="url(#SVGID_2_)">
		<g>
			<g>
				<polygon fill="#E5E5E5" points="13.108,372.211 -545.436,372.211 -455.404,312.133 -75.262,312.133 				"/>
				<g opacity="0.1">
					<g>
						<defs>
							<polygon id="SVGID_47_" points="10.801,372.145 -543.008,372.145 -453.74,310.025 -76.821,310.025 							"/>
						</defs>
						<clipPath id="SVGID_4_">
							<use xlink:href="#SVGID_47_"  overflow="visible"/>
						</clipPath>
						<ellipse clip-path="url(#SVGID_4_)" fill="#818181" cx="-6.047" cy="315.629" rx="8.697" ry="3.416"/>
						<ellipse clip-path="url(#SVGID_4_)" fill="#818181" cx="19.088" cy="315.629" rx="8.698" ry="3.416"/>
						<ellipse clip-path="url(#SVGID_4_)" fill="#818181" cx="-6.047" cy="325.901" rx="8.697" ry="3.415"/>
						<path clip-path="url(#SVGID_4_)" fill="#818181" d="M19.088,322.486c-4.804,0-8.7,1.527-8.7,3.414s3.896,3.416,8.7,3.416
							c4.802,0,8.698-1.529,8.698-3.416S23.89,322.486,19.088,322.486z"/>
						<ellipse clip-path="url(#SVGID_4_)" fill="#818181" cx="-6.047" cy="336.171" rx="8.697" ry="3.415"/>
						<path clip-path="url(#SVGID_4_)" fill="#818181" d="M19.088,332.756c-4.804,0-8.7,1.527-8.7,3.414s3.896,3.416,8.7,3.416
							c4.802,0,8.698-1.529,8.698-3.416S23.89,332.756,19.088,332.756z"/>
						<ellipse clip-path="url(#SVGID_4_)" fill="#818181" cx="-6.089" cy="346.081" rx="8.699" ry="3.415"/>
						<path clip-path="url(#SVGID_4_)" fill="#818181" d="M19.046,342.666c-4.804,0-8.698,1.529-8.698,3.416
							c0,1.885,3.895,3.414,8.698,3.414c4.801,0,8.695-1.529,8.695-3.414C27.741,344.195,23.847,342.666,19.046,342.666z"/>
						<path clip-path="url(#SVGID_4_)" fill="#818181" d="M-6.089,352.938c-4.805,0-8.699,1.529-8.699,3.412
							c0,1.889,3.895,3.416,8.699,3.416c4.803,0,8.698-1.527,8.698-3.416C2.609,354.467-1.286,352.938-6.089,352.938z"/>
						<path clip-path="url(#SVGID_4_)" fill="#818181" d="M19.046,352.938c-4.804,0-8.698,1.529-8.698,3.412
							c0,1.889,3.895,3.416,8.698,3.416c4.801,0,8.695-1.527,8.695-3.416C27.741,354.467,23.847,352.938,19.046,352.938z"/>
						<ellipse clip-path="url(#SVGID_4_)" fill="#818181" cx="-6.089" cy="366.623" rx="8.699" ry="3.414"/>
						<path clip-path="url(#SVGID_4_)" fill="#818181" d="M19.046,363.209c-4.804,0-8.698,1.527-8.698,3.412
							c0,1.887,3.895,3.416,8.698,3.416c4.801,0,8.695-1.529,8.695-3.416C27.741,364.736,23.847,363.209,19.046,363.209z"/>
					</g>
				</g>
				<rect x="-545.867" y="371.75" fill="#E5E5E5" width="559.408" height="51.449"/>
			</g>
			<g>
				<g>
					<path fill="#A4D066" d="M11,92.549c0-18.17-43.062-32.393-88.728-32.393c-45.664,0-84.272,14.967-89.272,32.309l0,0v245.037
						v0.197c8,17.109,45.187,30.064,89,30.064s82-13.102,89-30.211v-0.051V92.549L11,92.549z"/>
					<path fill="#E5E5E5" d="M6.763,96.068c0,18.434-38.072,33.377-85.037,33.377s-85.039-14.943-85.039-33.377
						c0-18.438,38.074-33.379,85.039-33.379S6.763,77.631,6.763,96.068z"/>
					<path opacity="0.5" fill="#F3F2F2" d="M-75.645,156.186c-37.033,0-69.587-9.295-81.257-22.26
						c-0.012,0.109-1.099,0.223-1.099,0.338v74.879c0-0.117,0.842-0.229,0.852-0.344c11.67,12.967,44.059,22.264,81.095,22.264
						c35.992,0,65.054-8.781,80.054-21.182v-74.877C-11,147.402-39.65,156.186-75.645,156.186z"/>
					<path opacity="0.9" fill="none" stroke="#CDCCCC" stroke-width="1.528" stroke-miterlimit="10" d="M-0.353,96.691
						c0,16.941-34.992,30.676-78.154,30.676c-43.164,0-78.156-13.734-78.156-30.676c0-16.945,34.992-30.676,78.156-30.676
						C-35.345,66.016-0.353,79.746-0.353,96.691z"/>
				</g>
			</g>
		</g>
	</g>
</g>
<g>
	<path fill="#399AD4" d="M485.664,239.538L377.156,51.967C373.299,45.306,366.206,41,358.506,41h-217.01
		c-7.701,0-14.793,4.306-18.653,10.967L14.337,239.43c-3.859,6.665-3.859,14.995,0,21.66l108.506,187.258
		c3.86,6.665,10.952,10.652,18.653,10.652h217.01c7.7,0,14.793-3.961,18.65-10.625l108.508-187.293
		C489.522,254.418,489.522,246.203,485.664,239.538z"/>
	<g>
		<g>
			<defs>
				<path id="SVGID_51_" d="M485.664,239.196l-108.508-187.4C373.299,45.135,366.206,41,358.506,41h-217.01
					c-7.701,0-14.793,4.135-18.653,10.796L14.337,239.174c-3.859,6.664-3.859,14.951,0,21.616l108.506,187.408
					c3.86,6.664,10.952,10.802,18.653,10.802h217.01c7.7,0,14.793-4.133,18.65-10.797l108.508-187.378
					C489.522,254.161,489.522,245.861,485.664,239.196z"/>
			</defs>
			<clipPath id="SVGID_5_">
				<use xlink:href="#SVGID_51_"  overflow="visible"/>
			</clipPath>
			<g clip-path="url(#SVGID_5_)">
				<g>
					<path fill="#A4D066" d="M361-79.867c0-23.264-54.766-41.48-113.227-41.48C189.316-121.348,140.549-103,134.715-80H134v313.727
						v0.25c10,21.905,57.408,38.492,113.5,38.492c56.09,0,105.5-16.774,113.5-38.68v-0.062V-79.867L361-79.867z"/>
					<path opacity="0.5" fill="#F3F2F2" d="M250.623,1.599c-47.412,0-88.683-11.897-103.621-28.497
						c-0.016,0.143-1.002,0.285-1.002,0.434v95.86c0-0.149,0.466-0.292,0.479-0.438c14.941,16.6,56.512,28.5,103.926,28.5
						c46.08,0,84.596-11.244,102.596-27.118v-95.857C335-9.645,296.704,1.599,250.623,1.599z"/>
				</g>
				<g>
					<g>
						<path fill="#FFFFFF" d="M303,247.27c0,3.338-2.578,5.73-5.917,5.73h-94.021c-3.339,0-6.062-2.392-6.062-5.73v-29.355
							c0-3.342,2.724-5.914,6.062-5.914h94.021c3.339,0,5.917,2.572,5.917,5.914V247.27z"/>
						<g opacity="0.8">
							<rect x="237" y="215" fill="#343433" width="3" height="27"/>
							<rect x="228" y="215" fill="#343433" width="7" height="27"/>
							<rect x="243" y="215" fill="#343433" width="12" height="27"/>
							<rect x="267" y="215" fill="#343433" width="3" height="27"/>
							<rect x="261" y="215" fill="#343433" width="2" height="27"/>
							<rect x="285" y="215" fill="#343433" width="3" height="35"/>
							<path fill="#343433" d="M296,214.944c0-0.003,0.31,0.056,0.254,0.056H290v35h6.254c0.056,0-0.254-0.416-0.254-0.416V214.944z
								"/>
							<path fill="#343433" d="M209,215h-6.602c-0.055,0-0.398-0.059-0.398-0.056v34.637c0,0,0.344,0.418,0.398,0.418H209V215z"/>
							<rect x="210" y="215" fill="#343433" width="4" height="35"/>
							<path fill="#343433" d="M217,244.099c1-1.188,3-1.934,6-1.934V215h-6V244.099z"/>
							<path fill="#343433" d="M276,242.166c0,0,2,0.182,2,0.457V215h-2V242.166z"/>
						</g>
						<g>
							<path fill="#E5E5E5" d="M225.782,247.302c0,1.629-0.858,2.943-1.915,2.943h-3.831c-1.058,0-1.916-1.314-1.916-2.943
								c0-1.625,0.858-2.944,1.916-2.944h3.831C224.924,244.358,225.782,245.676,225.782,247.302z"/>
							<path fill="#E5E5E5" d="M240.497,247.302c0,1.629-1.318,2.943-2.942,2.943h-5.885c-1.626,0-2.944-1.314-2.944-2.943
								c0-1.625,1.318-2.944,2.944-2.944h5.885C239.179,244.358,240.497,245.676,240.497,247.302z"/>
							<path fill="#E5E5E5" d="M255.212,247.302c0,1.629-1.318,2.943-2.942,2.943h-5.885c-1.626,0-2.944-1.314-2.944-2.943
								c0-1.625,1.318-2.944,2.944-2.944h5.885C253.894,244.358,255.212,245.676,255.212,247.302z"/>
							<path fill="#E5E5E5" d="M269.927,247.302c0,1.629-1.318,2.943-2.942,2.943H261.1c-1.626,0-2.944-1.314-2.944-2.943
								c0-1.625,1.318-2.944,2.944-2.944h5.885C268.608,244.358,269.927,245.676,269.927,247.302z"/>
							<path fill="#E5E5E5" d="M280.108,247.302c0,1.629-0.812,2.943-1.811,2.943h-3.617c-1.001,0-1.811-1.314-1.811-2.943
								c0-1.625,0.81-2.944,1.811-2.944h3.617C279.297,244.358,280.108,245.676,280.108,247.302z"/>
						</g>
					</g>
					<path opacity="0.7" fill="#F15A29" d="M319.528,228.5c0,0.812-0.87,1.5-1.943,1.5H177.696c-1.076,0-1.944-0.688-1.944-1.5l0,0
						c0-0.813,0.868-1.5,1.944-1.5h139.889C318.658,227,319.528,227.687,319.528,228.5L319.528,228.5z"/>
				</g>
			</g>
			<g clip-path="url(#SVGID_5_)">
				<g opacity="0.5">
					
						<linearGradient id="SVGID_7_" gradientUnits="userSpaceOnUse" x1="249.7559" y1="204.064" x2="249.7559" y2="309.0679" gradientTransform="matrix(1 0.0018 0.0018 0.5005 -0.5527 153.8898)">
						<stop  offset="0.0669" style="stop-color:#FFFFFF;stop-opacity:0"/>
						<stop  offset="1" style="stop-color:#FFFFFF"/>
					</linearGradient>
					<path fill="url(#SVGID_7_)" d="M218.768,308.85c-2.256-0.008-4.082-1.064-4.077-2.361l-27.058-47.799
						c0.008-1.296,1.841-2.339,4.093-2.33l115.712,0.411c2.258,0.009,4.082,1.065,4.079,2.361l-27.399,47.604
						c-0.003,1.296-1.835,2.34-4.092,2.332L218.768,308.85z"/>
				</g>
				<g opacity="0.7">
					
						<linearGradient id="SVGID_9_" gradientUnits="userSpaceOnUse" x1="-4105.6978" y1="1042.3945" x2="-4001.0024" y2="1042.3945" gradientTransform="matrix(-0.0036 1 -1.5444 -0.0055 1844.8003 4315.7139)">
						<stop  offset="0" style="stop-color:#FFFFFF;stop-opacity:0"/>
						<stop  offset="0.1095" style="stop-color:#FEEEEF;stop-opacity:0.1095"/>
						<stop  offset="0.326" style="stop-color:#FAC2C4;stop-opacity:0.326"/>
						<stop  offset="0.629" style="stop-color:#F57B80;stop-opacity:0.629"/>
						<stop  offset="1" style="stop-color:#ED1C24"/>
					</linearGradient>
					<path fill="url(#SVGID_9_)" d="M218.762,308.85c-2.255-0.008-4.078-2.113-4.068-4.703l-26.888-95.414
						c0.013-2.588,1.849-4.678,4.101-4.67l115.712,0.41c2.258,0.01,4.078,2.115,4.07,4.703l-27.569,95.219
						c-0.007,2.59-1.843,4.682-4.1,4.674L218.762,308.85z"/>
				</g>
				<path fill="#343433" d="M350.431,573.532c-0.001,4.291-3.48,7.771-7.774,7.768l-189.124-0.062
					c-4.294-0.002-7.772-3.485-7.771-7.776l0.087-261.667c0-4.29,3.482-7.77,7.776-7.77l189.124,0.065
					c4.291,0.002,7.771,3.485,7.771,7.776L350.431,573.532z"/>
				<path fill="#F3F2F2" d="M334.893,552.8c-0.001,4.291-3.48,7.77-7.771,7.771l-158.038-0.056
					c-4.291,0.001-7.771-3.486-7.769-7.773l0.072-220.216c0.001-4.29,3.48-7.77,7.774-7.767l158.035,0.052
					c4.293,0.002,7.772,3.485,7.771,7.776L334.893,552.8z"/>
				<g>
					<rect x="169.16" y="330" fill="#4F4F4F" width="4.857" height="2"/>
					<rect x="169" y="333" fill="#4F4F4F" width="5" height="2"/>
					<rect x="169.149" y="335.767" fill="#4F4F4F" width="4.85" height="1.942"/>
				</g>
				<rect x="224.746" y="329.964" fill="#E5E5E5" width="49.227" height="7.775"/>
				<rect x="236.499" y="355.882" fill="#E5E5E5" width="77.723" height="80.313"/>
				<polygon fill="#CECCCB" points="301,379.207 252,379.188 252,371.42 301,371.439 				"/>
				<rect x="252.044" y="386.972" fill="#CECCCB" width="49.226" height="7.772"/>
				<rect x="252.038" y="402.51" fill="#CECCCB" width="23.316" height="7.773"/>
				<polygon fill="#CECCCB" points="301,410.296 277.812,410.29 277.75,402.515 301,402.521 				"/>
				<rect x="174.295" y="454.323" fill="#E5E5E5" width="147.674" height="20.725"/>
				<rect x="174.28" y="485.413" fill="#E5E5E5" width="147.676" height="49.223"/>
				<g opacity="0.7">
					<path fill="#A4D066" d="M227.439,362.222c0.005-5.052-11.91-8.941-24.607-8.949c-12.697-0.004-23.311,3.932-24.581,9.043
						h-0.035l-0.023,68.015v0.052c1.916,4.758,12.425,8.368,24.609,8.37c12.184,0.002,22.696-3.636,24.614-8.392v-0.017
						L227.439,362.222"/>
					<path fill="#E5E5E5" d="M226.258,363.203c-0.001,5.126-10.591,9.276-23.651,9.271c-13.06-0.004-23.65-4.159-23.646-9.288
						c0.001-5.127,10.591-9.28,23.649-9.274C215.67,353.918,226.257,358.076,226.258,363.203z"/>
					<path fill="#B4B2B4" d="M224.919,363.334c-0.001,1.927-4.562,3.493-10.188,3.484c-5.629,0.002-10.189-1.562-10.188-3.489
						c0.001-1.93,4.563-3.49,10.189-3.489C220.36,359.843,224.921,361.404,224.919,363.334z"/>
					<path fill="#CECCCB" d="M207.705,359.772l-15.013-0.006c-0.332,0.001-1.052,0.302-1.051,0.524v3.89
						c-0.003,0.224,0.718,0.7,1.05,0.699l15.01,0.003c0.333,0.002,0.562-0.476,0.562-0.695l0.001-3.893
						C208.264,360.068,208.038,359.769,207.705,359.772z M200.59,363.509c0.001,0.228,0.04,0.732-0.294,0.734l-6.405-0.002
						c-0.328-0.003-0.334-0.508-0.335-0.729l0.005-2.556c-0.002-0.219,0.002-0.553,0.334-0.554l6.402,0.002
						c0.333-0.002,0.295,0.335,0.295,0.559L200.59,363.509z"/>
					<path fill="#CBE3AD" d="M180.916,373.716l-0.145,0.094l-0.008,20.822l0.069-0.097c3.245,3.609,12.181,6.197,22.481,6.2
						c10.011,0.003,18.361-2.434,22.196-5.882l0.009-20.822c-3.837,3.442-12.159,5.884-22.169,5.882
						C193.055,379.907,184.159,377.322,180.916,373.716"/>
					<path fill="#CBE3AD" d="M225.51,401.183c-2.723,1.329-7.784,2.98-14.065,3.827l-0.003,11.298
						c6.281-0.846,11.347-2.49,14.064-3.814L225.51,401.183"/>
					<path fill="#CBE3AD" d="M180.908,401.005l-0.147,0.052l-0.001,11.307l0.067-0.05c2.165,1.308,6.811,2.896,12.714,3.812
						l0.003-11.314C187.673,403.895,183.068,402.313,180.908,401.005"/>
					<path fill="#FFFFFF" d="M214.632,431.975c-0.001,0.729-0.589,1.311-1.312,1.312l-20.389-0.005
						c-0.725-0.003-1.315-0.589-1.313-1.314l0.002-6.321c-0.001-0.729,0.587-1.314,1.313-1.316l20.387,0.01
						c0.728,0,1.313,0.588,1.315,1.313L214.632,431.975"/>
					<polyline fill="#343433" points="200.567,430.726 201.207,430.726 201.21,424.975 200.568,424.974 200.567,430.726 					"/>
					<polyline fill="#343433" points="198.649,430.725 199.93,430.727 199.933,424.972 198.651,424.971 198.649,430.725 					"/>
					<polyline fill="#343433" points="201.849,430.724 204.403,430.726 204.407,424.975 201.85,424.973 201.849,430.724 					"/>
					<polyline fill="#343433" points="206.963,424.976 206.962,430.727 207.602,430.728 207.603,424.977 206.963,424.976 					"/>
					<polyline fill="#343433" points="205.683,430.728 206.324,430.729 206.324,424.971 205.686,424.973 205.683,430.728 					"/>
					<polyline fill="#343433" points="211.438,424.977 210.799,424.976 210.797,432.647 211.435,432.646 211.438,424.977 					"/>
					<polyline fill="#343433" points="213.355,424.98 213.322,424.978 212.079,424.975 212.074,432.649 213.318,432.649 
						213.354,432.502 213.355,424.98 					"/>
					<polyline fill="#343433" points="194.178,424.971 192.935,424.969 192.9,424.976 192.897,432.498 192.931,432.64 
						194.175,432.643 194.178,424.971 					"/>
					<polyline fill="#343433" points="194.812,432.642 195.452,432.642 195.457,424.971 194.815,424.974 194.812,432.642 					"/>
					<path fill="#343433" d="M196.095,431.309c0.339-0.258,0.785-0.42,1.276-0.418l0.003-5.92l-1.277-0.002L196.095,431.309"/>
					<path fill="#343433" d="M208.878,430.896c0.227-0.001,0.439,0.034,0.64,0.098l0.003-6.017l-0.641-0.004L208.878,430.896"/>
					<path fill="#E5E5E5" d="M198.013,432.005c0.001,0.356-0.19,0.639-0.42,0.64h-0.829c-0.229,0-0.416-0.287-0.417-0.641
						c-0.002-0.352,0.187-0.642,0.418-0.639h0.829C197.825,431.364,198.011,431.651,198.013,432.005z"/>
					<path fill="#E5E5E5" d="M201.207,432.008c0,0.354-0.287,0.636-0.639,0.638h-1.28c-0.352-0.002-0.638-0.285-0.638-0.642
						c0-0.354,0.287-0.636,0.639-0.638h1.277C200.921,431.364,201.207,431.651,201.207,432.008z"/>
					<path fill="#E5E5E5" d="M204.405,432.008c-0.002,0.356-0.287,0.638-0.642,0.639l-1.278-0.001
						c-0.353-0.003-0.639-0.283-0.639-0.64c0.001-0.353,0.285-0.639,0.639-0.64l1.279,0.002
						C204.119,431.367,204.406,431.651,204.405,432.008z"/>
					<path fill="#E5E5E5" d="M207.602,432.01c0.001,0.35-0.287,0.636-0.641,0.637l-1.279-0.002c-0.354,0.001-0.638-0.28-0.636-0.64
						c-0.002-0.35,0.282-0.639,0.636-0.637l1.28-0.004C207.315,431.37,207.6,431.654,207.602,432.01z"/>
					<path fill="#E5E5E5" d="M209.813,432.01c0.001,0.353-0.181,0.638-0.395,0.636h-0.787c-0.219,0-0.392-0.281-0.391-0.638
						c-0.002-0.353,0.173-0.639,0.392-0.639h0.787C209.636,431.368,209.812,431.657,209.813,432.01z"/>
					<path fill="#D87C34" d="M191.617,427.528h-4.053c-0.232,0.001-0.418,0.141-0.42,0.315c0,0.175,0.188,0.323,0.422,0.322h4.054
						L191.617,427.528 M217.953,427.533l-3.319,0.002l0.001,0.638l3.319,0.005c0.231,0,0.42-0.146,0.42-0.322
						C218.375,427.681,218.187,427.536,217.953,427.533"/>
					<path fill="#F48665" d="M192.898,427.527l-1.281,0.001l0.003,0.638l1.279,0.003L192.898,427.527 M194.817,427.528l-0.642,0.001
						v0.638l0.641-0.001L194.817,427.528 M196.093,427.53l-0.64-0.002l0.002,0.642l0.64-0.002L196.093,427.53 M198.651,427.531
						l-1.279,0.001l0.001,0.635l1.279,0.003L198.651,427.531 M200.57,427.532l-0.642-0.002l0.003,0.641l0.638-0.001L200.57,427.532
						 M201.848,427.53l-0.64-0.001l0.001,0.642l0.642-0.002L201.848,427.53 M205.684,427.531l-1.278,0.001v0.639l1.279,0.001
						L205.684,427.531 M206.962,427.537l-0.64-0.005l0.002,0.642l0.638-0.002V427.537 M208.881,427.534l-1.28,0.001l0.001,0.638
						l1.279,0.003V427.534 M210.795,427.534l-1.276-0.003l0.003,0.645l1.276-0.001L210.795,427.534 M212.077,427.533l-0.642,0.002
						v0.642l0.643-0.002L212.077,427.533 M214.634,427.535h-1.28l0.001,0.641l1.28-0.003L214.634,427.535"/>
					<polyline fill="#B94C28" points="201.208,427.529 200.57,427.532 200.569,428.17 201.209,428.171 201.208,427.529 					"/>
					<polyline fill="#B94C28" points="199.929,427.53 198.651,427.531 198.652,428.17 199.932,428.171 199.929,427.53 					"/>
					<polyline fill="#B94C28" points="204.405,427.532 201.848,427.53 201.851,428.169 204.405,428.171 204.405,427.532 					"/>
					<polyline fill="#B94C28" points="207.601,427.535 206.962,427.537 206.962,428.172 207.602,428.173 207.601,427.535 					"/>
					<polyline fill="#B94C28" points="206.322,427.532 205.684,427.531 205.685,428.172 206.324,428.174 206.322,427.532 					"/>
					<polyline fill="#B94C28" points="211.436,427.535 210.795,427.534 210.798,428.175 211.436,428.177 211.436,427.535 					"/>
					<polyline fill="#B94C28" points="213.354,427.535 212.077,427.533 212.078,428.175 213.354,428.176 213.354,427.535 					"/>
					<polyline fill="#B94C28" points="194.176,427.529 192.898,427.527 192.899,428.169 194.176,428.167 194.176,427.529 					"/>
					<polyline fill="#B94C28" points="195.453,427.528 194.817,427.528 194.816,428.166 195.455,428.17 195.453,427.528 					"/>
					<polyline fill="#B94C28" points="197.372,427.532 196.093,427.53 196.095,428.168 197.373,428.167 197.372,427.532 					"/>
					<polyline fill="#B94C28" points="209.519,427.531 208.881,427.534 208.881,428.176 209.521,428.176 209.519,427.531 					"/>
				</g>
			</g>
		</g>
	</g>
</g>
<path fill="none" stroke="#399AD4" stroke-width="3" stroke-miterlimit="10" d="M485.664,238.038L377.156,51.467
	c-3.857-6.661-10.95-9.967-18.65-9.967h-217.01c-7.701,0-14.793,3.306-18.653,9.967L14.337,238.43
	c-3.859,6.665-3.859,14.745,0,21.41l108.506,188.133c3.86,6.665,10.952,11.527,18.653,11.527h217.01
	c7.7,0,14.793-4.961,18.65-11.625l108.508-187.793C489.522,253.418,489.522,244.703,485.664,238.038z"/>
</svg>
